<svg xmlns="http://www.w3.org/2000/svg" width="385" height="80" viewBox="0 0 385 80" version="1.1">
	<path d="M 12 18 L 12 26 38 26 L 64 26 64 18 L 64 10 38 10 L 12 10 12 18 M 89 18 L 89 26 97 26 L 105 26 105 18 L 105 10 97 10 L 89 10 89 18 M 264 32 L 264 46 266.500 46 C 268.712 46, 269 45.578, 269 42.333 L 269 38.667 272.250 42.419 C 274.996 45.589, 276.020 46.119, 278.857 45.835 L 282.214 45.500 278.013 40.739 L 273.811 35.979 277.104 32.239 L 280.397 28.500 277.473 28.162 C 275.307 27.911, 273.971 28.495, 272.322 30.412 C 271.098 31.835, 269.849 33, 269.548 33 C 269.247 33, 269 29.625, 269 25.500 C 269 18.167, 268.944 18, 266.500 18 L 264 18 264 32 M 228.667 22.667 C 228.300 23.033, 228 24.383, 228 25.667 C 228 26.950, 227.550 28, 227 28 C 226.450 28, 226 28.900, 226 30 C 226 31.100, 226.394 32, 226.876 32 C 227.358 32, 227.963 34.542, 228.221 37.650 C 228.742 43.929, 230.471 46, 235.191 46 C 237.275 46, 238 45.514, 238 44.117 C 238 43.074, 237.107 42, 236 41.710 C 234.366 41.283, 234 40.346, 234 36.594 C 234 34.067, 234.450 32, 235 32 C 235.550 32, 236 31.100, 236 30 C 236 28.900, 235.550 28, 235 28 C 234.450 28, 234 26.650, 234 25 C 234 22.524, 233.593 22, 231.667 22 C 230.383 22, 229.033 22.300, 228.667 22.667 M 309 24.531 C 309 25.924, 308.325 27.322, 307.500 27.638 C 306.675 27.955, 306 29.066, 306 30.107 C 306 31.148, 306.675 32, 307.500 32 C 308.646 32, 309 33.261, 309 37.345 C 309 43.412, 310.893 46, 315.329 46 C 318.583 46, 319.126 42.528, 316 41.710 C 314.366 41.283, 314 40.346, 314 36.594 C 314 33.177, 314.384 32, 315.500 32 C 316.333 32, 317 31.111, 317 30 C 317 28.889, 316.333 28, 315.500 28 C 314.500 28, 314 27, 314 25 C 314 22.467, 313.611 22, 311.500 22 C 309.492 22, 309 22.498, 309 24.531 M 210.388 27.980 C 207.262 29.243, 204 33.879, 204 37.058 C 204 38.599, 205.158 41.223, 206.589 42.923 C 208.767 45.511, 209.886 46, 213.634 46 C 219.430 46, 223 42.752, 223 37.480 C 223 32.583, 221.479 30.098, 217.452 28.415 C 213.626 26.817, 213.315 26.798, 210.388 27.980 M 359.388 27.980 C 356.262 29.243, 353 33.879, 353 37.058 C 353 38.599, 354.158 41.223, 355.589 42.923 C 357.767 45.511, 358.886 46, 362.634 46 C 368.430 46, 372 42.752, 372 37.480 C 372 32.583, 370.479 30.098, 366.452 28.415 C 362.626 26.817, 362.315 26.798, 359.388 27.980 M 125.455 30.455 C 122.044 33.866, 122.044 40.134, 125.455 43.545 C 128.141 46.232, 134.417 46.918, 138.130 44.930 C 141.426 43.166, 138.639 40.874, 134.085 41.602 C 131.394 42.033, 130.047 41.762, 129.079 40.596 C 127.890 39.162, 128.428 39, 134.378 39 C 141 39, 141 39, 141 36.135 C 141 34.559, 140.067 32.084, 138.927 30.635 C 136.043 26.968, 129.035 26.874, 125.455 30.455 M 164.216 28.845 C 163.510 29.293, 163.213 30.392, 163.557 31.287 C 164.013 32.477, 164.954 32.759, 167.060 32.338 C 168.643 32.021, 170.740 32.130, 171.719 32.579 C 173.019 33.176, 172.152 33.545, 168.508 33.948 C 164.217 34.422, 163.318 34.914, 162.111 37.443 C 160.901 39.978, 160.905 40.740, 162.140 42.943 C 163.451 45.281, 164.190 45.517, 170.787 45.703 L 178 45.906 178 38.608 C 178 32.808, 177.625 30.970, 176.171 29.655 C 174.236 27.904, 166.523 27.381, 164.216 28.845 M 183 41 L 183 54 185.500 54 C 187.779 54, 188 53.620, 188 49.701 C 188 45.404, 188.002 45.402, 191.386 45.797 C 195.867 46.320, 198.857 44.587, 200.578 40.467 C 201.643 37.918, 201.728 36.414, 200.924 34.300 C 198.879 28.921, 197.260 28, 189.845 28 L 183 28 183 41 M 243.455 30.455 C 241.648 32.261, 241 33.990, 241 37 C 241 42.725, 244.360 46.006, 250.205 45.985 C 255.312 45.966, 257.523 44.804, 256.671 42.585 C 256.187 41.325, 255.208 41.103, 252.227 41.580 C 249.391 42.033, 248.062 41.779, 247.079 40.596 C 245.890 39.162, 246.428 39, 252.378 39 L 259 39 259 35.955 C 259 31.428, 255.122 28, 250 28 C 246.990 28, 245.261 28.648, 243.455 30.455 M 287.455 30.455 C 285.648 32.261, 285 33.990, 285 37 C 285 42.725, 288.360 46.006, 294.205 45.985 C 299.312 45.966, 301.523 44.804, 300.671 42.585 C 300.187 41.325, 299.208 41.103, 296.227 41.580 C 293.391 42.033, 292.062 41.779, 291.079 40.596 C 289.890 39.162, 290.428 39, 296.378 39 L 303 39 303 35.955 C 303 31.428, 299.122 28, 294 28 C 290.990 28, 289.261 28.648, 287.455 30.455 M 333 37.087 C 333 45.881, 333.033 46, 335.452 46 C 337.757 46, 337.922 45.630, 338.202 39.854 C 338.743 28.692, 345 29.462, 345 40.691 C 345 45.687, 345.147 46, 347.500 46 C 349.929 46, 350 45.800, 350 39 C 350 29.571, 348.541 28.055, 339.537 28.124 L 333 28.174 333 37.087 M 12 40 L 12 48 29.500 48 L 47 48 47 40 L 47 32 29.500 32 L 12 32 12 40 M 129.667 32.667 C 128.159 34.174, 129.205 35, 132.622 35 C 135.729 35, 136.068 34.786, 135 33.500 C 133.712 31.949, 130.834 31.499, 129.667 32.667 M 189.200 33.200 C 187.529 34.871, 187.700 39.506, 189.487 40.989 C 191.697 42.823, 195.860 41.406, 196.570 38.578 C 197.814 33.619, 192.592 29.808, 189.200 33.200 M 210.035 33.934 C 208.583 36.647, 208.745 38.602, 210.571 40.429 C 212.871 42.728, 215.724 42.350, 217.592 39.500 C 219.109 37.184, 219.109 36.816, 217.592 34.500 C 215.603 31.465, 211.520 31.159, 210.035 33.934 M 247 33.500 C 245.927 34.793, 246.340 35, 250 35 C 253.660 35, 254.073 34.793, 253 33.500 C 252.315 32.675, 250.965 32, 250 32 C 249.035 32, 247.685 32.675, 247 33.500 M 291 33.500 C 289.927 34.793, 290.340 35, 294 35 C 297.660 35, 298.073 34.793, 297 33.500 C 296.315 32.675, 294.965 32, 294 32 C 293.035 32, 291.685 32.675, 291 33.500 M 359.200 33.200 C 356.423 35.977, 358.936 42, 362.871 42 C 365.351 42, 367 40.003, 367 37 C 367 33.856, 365.330 32, 362.500 32 C 361.345 32, 359.860 32.540, 359.200 33.200 M 145 37 C 145 38.778, 145.667 39, 151 39 C 156.333 39, 157 38.778, 157 37 C 157 35.222, 156.333 35, 151 35 C 145.667 35, 145 35.222, 145 37 M 167.104 37.893 C 164.758 39.414, 166.617 42.177, 169.744 41.817 C 171.728 41.589, 172.500 40.939, 172.500 39.500 C 172.500 37.298, 169.432 36.385, 167.104 37.893 M 322.701 41.632 C 322.316 42.018, 322 43.158, 322 44.167 C 322 45.469, 322.745 46, 324.570 46 C 326.659 46, 327.079 45.582, 326.820 43.760 C 326.503 41.543, 324.055 40.278, 322.701 41.632 M 12 62 L 12 70 38 70 L 64 70 64 62 L 64 54 38 54 L 12 54 12 62 M 89 62 L 89 70 97 70 L 105 70 105 62 L 105 54 97 54 L 89 54 89 62 M 199.842 57 C 198.622 58.650, 196.921 60.007, 196.062 60.015 C 194.703 60.029, 194.692 60.152, 195.982 60.968 C 197.248 61.768, 197.060 62.727, 194.689 67.561 C 192.258 72.519, 191.612 73.159, 189.458 72.747 C 186.772 72.234, 186.062 73.703, 188.537 74.653 C 190.634 75.457, 193.666 72.522, 197.218 66.250 C 199.285 62.599, 200.847 60.965, 202.345 60.884 C 204.143 60.787, 204.198 60.690, 202.677 60.297 C 201.551 60.005, 201.072 59.254, 201.427 58.331 C 201.742 57.509, 202 56.648, 202 56.418 C 202 56.188, 202.927 56, 204.059 56 C 205.191 56, 205.840 55.550, 205.500 55 C 204.365 53.163, 202.082 53.970, 199.842 57 M 166 57 C 165.411 58.100, 164.124 59, 163.140 59 C 162.155 59, 158.742 61.025, 155.554 63.500 C 150.002 67.812, 147 69.064, 147 67.067 C 147 66.554, 147.897 65.850, 148.994 65.502 C 151.284 64.775, 154 62.294, 154 60.929 C 154 58.935, 150.717 60.178, 145.881 64 C 140.727 68.074, 138 69.016, 138 66.723 C 138 63.919, 141.144 60.999, 144.307 60.864 C 146.659 60.763, 146.907 60.614, 145.250 60.294 C 144.012 60.056, 143 59.252, 143 58.507 C 143 57.395, 142.473 57.416, 140.050 58.625 C 138.310 59.493, 137.311 60.646, 137.613 61.435 C 137.903 62.189, 136.719 63.776, 134.902 65.070 L 131.677 67.366 132.314 64.433 C 132.665 62.820, 133.265 60.394, 133.647 59.043 C 134.291 56.766, 133.997 56.869, 129.627 60.449 C 124.816 64.392, 124.181 66.455, 127.196 68.354 C 128.461 69.151, 129.795 68.991, 132.446 67.727 C 135.493 66.274, 136 66.244, 136 67.516 C 136 69.448, 139.916 69.447, 142.676 67.514 C 144.552 66.200, 144.863 66.200, 145.367 67.514 C 146.097 69.416, 148.961 69.416, 151.676 67.514 C 153.552 66.200, 153.863 66.200, 154.367 67.514 C 155.114 69.461, 156.903 69.397, 159.171 67.345 C 160.873 65.805, 161 65.805, 161 67.345 C 161 69.474, 163.819 69.474, 166.171 67.345 C 167.873 65.805, 168 65.805, 168 67.345 C 168 69.447, 171.780 69.543, 174.676 67.514 C 176.552 66.200, 176.863 66.200, 177.367 67.514 C 178.277 69.885, 182.438 69.236, 185.076 66.312 L 187.500 63.624 184.615 65.812 C 179.640 69.585, 177.193 68.024, 180.557 63.223 C 181.561 61.789, 183.247 60.952, 185.307 60.864 C 187.659 60.763, 187.907 60.614, 186.250 60.294 C 185.012 60.056, 184 59.252, 184 58.507 C 184 57.395, 183.473 57.416, 181.050 58.625 C 179.295 59.500, 178.310 60.643, 178.618 61.446 C 179.149 62.830, 173.263 68, 171.156 68 C 169.132 68, 169.979 66.562, 173.219 64.500 C 174.947 63.400, 176.303 62.050, 176.233 61.500 C 175.936 59.166, 172.911 60.164, 168.852 63.934 C 164.706 67.784, 162 69.039, 162 67.112 C 162 66.624, 163.575 63.935, 165.500 61.136 C 167.425 58.338, 169 55.812, 169 55.524 C 169 54.201, 166.961 55.204, 166 57 M 262.768 57 C 262.081 58.100, 260.590 59, 259.456 59 C 256.696 59, 250.550 65.385, 251.336 67.434 C 252.060 69.319, 254.112 69.460, 255.925 67.750 C 256.985 66.750, 257.342 66.750, 257.708 67.750 C 258.351 69.502, 261.005 69.306, 263.171 67.345 C 264.873 65.805, 265 65.805, 265 67.345 C 265 69.698, 269.142 69.463, 272.365 66.927 C 273.814 65.788, 275 64.353, 275 63.740 C 275 63.127, 273.738 63.835, 272.195 65.313 C 269.341 68.047, 267 68.807, 267 67 C 267 66.450, 267.477 66, 268.059 66 C 268.641 66, 268.877 65.610, 268.583 65.134 C 268.288 64.657, 268.937 63.462, 270.024 62.479 C 271.111 61.495, 272 61.162, 272 61.738 C 272 62.314, 271.261 63.070, 270.357 63.417 C 269.453 63.763, 269 64.334, 269.351 64.684 C 270.228 65.561, 274.082 61.942, 273.417 60.866 C 272.358 59.152, 270.042 60.069, 265.500 64 C 258.128 70.380, 256.488 68.578, 262.500 60.704 C 264.425 58.183, 266 55.868, 266 55.560 C 266 54.235, 263.914 55.164, 262.768 57 M 286.782 56.750 C 284.335 59.553, 280 66.851, 280 68.167 C 280 68.831, 281.334 68.096, 282.964 66.534 C 284.595 64.972, 285.695 63.315, 285.409 62.853 C 285.123 62.390, 286.093 60.434, 287.563 58.506 C 290.263 54.967, 289.613 53.507, 286.782 56.750 M 306.889 56.750 C 301.314 63.618, 299.969 68.170, 303.324 68.821 C 304.328 69.016, 306.052 68.358, 307.156 67.358 C 309.049 65.645, 309.219 65.640, 310.132 67.271 C 311.301 69.360, 313.588 69.464, 317.180 67.590 C 319.477 66.391, 319.936 66.392, 320.398 67.596 C 321.187 69.650, 324.431 69.311, 327.139 66.891 L 329.500 64.783 326.785 66.391 C 325.292 67.276, 323.605 68, 323.035 68 C 321.218 68, 321.925 66.159, 323.994 65.502 C 326.284 64.775, 329 62.294, 329 60.929 C 329 58.965, 325.529 60.145, 321.435 63.500 C 319.085 65.425, 316.949 67, 316.687 67 C 316.104 67, 317.485 60.642, 318.384 59.187 C 319.500 57.382, 317.297 56.936, 315.863 58.677 C 315.113 59.587, 312.322 62.057, 309.660 64.166 C 302.025 70.214, 300.959 69.192, 306.500 61.136 C 308.425 58.338, 310 55.812, 310 55.524 C 310 54.394, 308.238 55.089, 306.889 56.750 M 334.520 58.250 C 333.057 60.038, 331.330 62.175, 330.681 63 C 330.031 63.825, 329.344 65.604, 329.153 66.953 C 328.857 69.041, 329.030 69.220, 330.314 68.155 C 331.333 67.309, 332.032 67.243, 332.470 67.951 C 333.432 69.507, 337.572 69.221, 339 67.500 C 339.685 66.675, 340.917 66, 341.737 66 C 343.002 66, 342.966 66.419, 341.496 68.750 C 339.235 72.337, 336.978 74.088, 335.603 73.321 C 334.868 72.912, 334.881 73.120, 335.643 73.946 C 337.479 75.938, 340.482 73.650, 343.923 67.634 C 345.615 64.676, 347 61.707, 347 61.035 C 347 60.363, 344.745 61.702, 341.989 64.010 C 339.020 66.495, 336.370 67.972, 335.489 67.634 C 333.084 66.711, 333.765 65.483, 337.250 64.457 C 341.198 63.294, 341.984 59.447, 338.247 59.580 C 336.114 59.655, 336.075 59.535, 337.520 57.330 C 339.808 53.837, 337.567 54.525, 334.520 58.250 M 353.611 60.254 C 349.355 63.999, 348.740 65.047, 348.471 69.004 C 348.303 71.477, 348.404 72.899, 348.695 72.164 C 348.986 71.430, 351.219 68.833, 353.658 66.394 C 356.097 63.955, 357.803 61.490, 357.449 60.917 C 357.094 60.343, 357.593 59.002, 358.557 57.937 C 361.739 54.421, 358.533 55.923, 353.611 60.254 M 215.008 59.190 C 214.465 60.460, 213.249 62.625, 212.306 64 L 210.591 66.500 213.255 64.114 L 215.918 61.728 215.328 65.364 C 214.809 68.567, 214.986 69, 216.813 69 C 217.955 69, 220.151 67.831, 221.694 66.402 L 224.500 63.805 221.615 65.902 C 216.491 69.628, 214.365 68.349, 218 63.727 C 220.419 60.651, 220.545 59.577, 218.389 60.404 C 217.247 60.843, 216.943 60.592, 217.345 59.543 C 218.299 57.058, 216.065 56.720, 215.008 59.190 M 346.500 58 C 346.160 58.550, 346.584 59, 347.441 59 C 348.298 59, 349 58.550, 349 58 C 349 57.450, 348.577 57, 348.059 57 C 347.541 57, 346.840 57.450, 346.500 58 M 204.589 62.077 C 201.479 65.772, 201.171 69, 203.927 69 C 206.383 69, 210 64.452, 210 61.365 C 210 58.082, 207.695 58.386, 204.589 62.077 M 233.064 62.434 C 230.983 64.581, 229.961 66.455, 230.336 67.434 C 231.042 69.273, 233.569 69.507, 234.605 67.830 C 235.091 67.043, 234.783 66.869, 233.664 67.299 C 230.985 68.327, 231.746 66.040, 235.137 62.872 C 238.847 59.406, 239.880 59.727, 237.367 63.563 C 236.380 65.069, 235.478 66.947, 235.362 67.738 C 235 70.207, 231.669 73.147, 229.789 72.655 C 227.599 72.082, 227.391 73.829, 229.551 74.658 C 231.566 75.431, 235.367 71.826, 238.560 66.114 C 242.751 58.615, 239.121 56.185, 233.064 62.434 M 244.589 62.077 C 243.165 63.769, 242 66.019, 242 67.077 C 242 70.412, 245.632 69.252, 249.166 64.788 C 251 62.471, 251.938 60.923, 251.250 61.347 C 250.455 61.837, 250 61.551, 250 60.559 C 250 58.031, 247.373 58.768, 244.589 62.077 M 288.097 60.919 C 286.383 62.004, 285.627 67.652, 287.077 68.548 C 287.654 68.904, 288.942 68.457, 289.939 67.555 C 291.555 66.093, 291.818 66.082, 292.345 67.457 C 293.181 69.636, 296.363 69.371, 299.139 66.891 L 301.500 64.783 298.785 66.391 C 297.292 67.276, 295.605 68, 295.035 68 C 293.218 68, 293.925 66.159, 295.994 65.502 C 298.284 64.775, 301 62.294, 301 60.929 C 301 58.864, 297.507 60.227, 292.889 64.093 C 287.778 68.372, 286.545 67.853, 290.068 62.904 C 292.162 59.964, 291.175 58.970, 288.097 60.919 M 334.861 61.967 C 333.511 63.092, 333.063 63.948, 333.816 63.967 C 335.699 64.014, 339 62.103, 339 60.965 C 339 59.447, 337.428 59.828, 334.861 61.967 M 358.980 64.186 C 355.489 69.006, 354.464 71.864, 355.763 73.163 C 356.379 73.779, 356.934 73.082, 357.305 71.227 C 357.817 68.667, 358.234 68.381, 360.883 68.769 C 363.152 69.103, 364.520 68.571, 366.509 66.581 C 370 63.091, 369.461 60.549, 365.183 60.335 C 362.402 60.195, 361.437 60.795, 358.980 64.186 M 128.661 62.823 C 126.602 65.097, 126.520 67, 128.481 67 C 129.295 67, 130.250 65.854, 130.601 64.453 C 131.434 61.133, 130.727 60.539, 128.661 62.823 M 149.405 63.146 C 147.513 65.276, 147.515 65.283, 149.694 64.140 C 152.125 62.865, 153.622 61, 152.214 61 C 151.717 61, 150.453 61.965, 149.405 63.146 M 158.455 63.455 C 155.889 66.020, 155.165 68.445, 157.164 67.779 C 158.934 67.189, 163.424 61, 162.083 61 C 161.437 61, 159.805 62.105, 158.455 63.455 M 172.405 63.146 C 170.510 65.280, 170.512 65.285, 172.750 64.110 C 173.988 63.461, 175 62.495, 175 61.965 C 175 60.544, 174.521 60.762, 172.405 63.146 M 255.635 63.073 C 252.902 65.222, 251.983 68.328, 254.348 67.420 C 256.046 66.768, 260.374 61, 259.165 61 C 258.673 61, 257.084 61.933, 255.635 63.073 M 296.405 63.146 C 294.513 65.276, 294.515 65.283, 296.694 64.140 C 299.125 62.865, 300.622 61, 299.214 61 C 298.717 61, 297.453 61.965, 296.405 63.146 M 312.598 63.163 C 311.765 64.353, 311.316 65.703, 311.601 66.163 C 312.454 67.543, 315 67.108, 315 65.582 C 315 64.802, 315.273 63.452, 315.607 62.582 C 316.504 60.245, 314.351 60.661, 312.598 63.163 M 324.405 63.146 C 322.513 65.276, 322.515 65.283, 324.694 64.140 C 327.125 62.865, 328.622 61, 327.214 61 C 326.717 61, 325.453 61.965, 324.405 63.146 M 362.635 63.073 C 359.846 65.266, 359.112 68, 361.311 68 C 363.132 68, 367 64.233, 367 62.461 C 367 60.453, 365.741 60.630, 362.635 63.073 M 205.035 63.934 C 203.306 67.165, 203.803 68.488, 206 66.500 C 208.092 64.607, 208.692 62, 207.035 62 C 206.505 62, 205.605 62.870, 205.035 63.934 M 245.241 63.986 C 243.311 67.076, 243.752 68.535, 246 66.500 C 247.972 64.716, 248.720 62, 247.241 62 C 246.823 62, 245.923 62.894, 245.241 63.986" stroke="none" fill="#54a682" fill-rule="evenodd"/>
</svg>