<svg xmlns="http://www.w3.org/2000/svg" width="340" height="88" viewBox="0 0 340 88" version="1.1">
	<path d="M 74.500 8.153 C 43.796 10.590, 18.369 18.359, 11.179 27.499 C 7.572 32.085, 8.264 36.067, 13.510 40.903 C 17.966 45.010, 18.002 45.095, 16.510 47.980 C 14.653 51.572, 14.639 52, 16.379 52 C 17.137 52, 18.326 50.627, 19.022 48.948 C 19.940 46.730, 20.725 46.081, 21.893 46.574 C 25.125 47.939, 36.574 51.790, 39.170 52.386 C 41.804 52.990, 41.751 52.809, 35.219 38.999 C 31.577 31.300, 28.309 25, 27.957 25 C 27.312 25, 20 39.975, 20 41.294 C 20 41.682, 20.455 42, 21.011 42 C 21.567 42, 23.236 39.525, 24.719 36.500 C 26.203 33.475, 27.702 31, 28.051 31 C 28.718 31, 37.215 49.118, 36.761 49.572 C 36.616 49.717, 32.984 48.479, 28.689 46.821 C 19.635 43.325, 13 37.790, 13 33.732 C 13 24.935, 32.966 16.484, 63 12.567 C 98.017 8.001, 145.870 10.389, 169.957 17.905 C 173.508 19.013, 176.587 19.747, 176.798 19.536 C 177.009 19.325, 172.803 17.749, 167.451 16.035 C 144.077 8.548, 108.029 5.491, 74.500 8.153 M 184.688 23.646 C 183.314 25.020, 184.026 27.142, 185.750 26.810 C 186.713 26.624, 187.500 25.841, 187.500 25.070 C 187.500 23.491, 185.736 22.598, 184.688 23.646 M 101 28 C 101 31.333, 100.667 32, 99 32 C 97.900 32, 97 32.450, 97 33 C 97 33.550, 97.900 34, 99 34 C 100.852 34, 101 34.667, 101 43 C 101 49.532, 101.343 52.001, 102.250 52.002 C 103.181 52.004, 103.418 49.710, 103.179 43.002 L 102.858 34 105.429 34 C 108.593 34, 108.849 32.260, 105.750 31.820 C 103.943 31.563, 103.439 30.762, 103.190 27.750 C 102.775 22.736, 101 22.939, 101 28 M 138 38 C 138 46.667, 138.381 52, 139 52 C 139.550 52, 140 49.920, 140 47.379 L 140 42.757 145.409 47.379 C 153.023 53.883, 155.652 53.362, 148.447 46.777 L 142.732 41.555 148.116 36.788 C 151.927 33.415, 152.960 32.019, 151.653 32.011 C 150.638 32.005, 147.713 33.845, 145.153 36.101 L 140.500 40.201 140.210 32.101 C 139.715 18.313, 138 22.892, 138 38 M 51.750 32.842 C 48.809 34.365, 48 34.484, 48 33.392 C 48 32.626, 47.550 32, 47 32 C 46.381 32, 46 37.333, 46 46 C 46 54.667, 46.381 60, 47 60 C 47.550 60, 48 57.540, 48 54.534 L 48 49.067 51.516 51.142 C 61.738 57.173, 72.278 43.824, 64.250 35.013 C 60.650 31.062, 56.559 30.352, 51.750 32.842 M 78.388 31.934 C 72.025 34.645, 70.008 43.480, 74.527 48.850 C 77.550 52.442, 81.754 53.566, 86.415 52.028 C 90.824 50.573, 93 47.168, 93 41.722 C 93 38.249, 92.428 36.826, 90.156 34.650 C 87.089 31.711, 81.784 30.487, 78.388 31.934 M 116.763 32.516 C 113.679 34.245, 110.998 38.753, 111.004 42.200 C 111.013 47.711, 116.603 53, 122.417 53 C 124.951 53, 131.114 49.206, 131.756 47.250 C 132.326 45.516, 129.064 45.669, 128.397 47.408 C 128.100 48.183, 126.539 49.363, 124.928 50.030 C 120.039 52.055, 114 48.503, 114 43.602 C 114 42.359, 115.747 42.019, 123.316 41.786 L 132.632 41.500 131.789 38.255 C 130.308 32.558, 122.207 29.463, 116.763 32.516 M 53.312 34.511 C 44.794 38.092, 47.264 50.400, 56.500 50.400 C 65.711 50.400, 68.044 37.899, 59.483 34.413 C 57.062 33.427, 55.844 33.446, 53.312 34.511 M 118.988 34.093 C 116.561 34.977, 113.396 38.729, 114.308 39.642 C 114.554 39.887, 118.263 39.956, 122.549 39.794 L 130.344 39.500 127.922 36.831 C 125.042 33.656, 122.405 32.848, 118.988 34.093 M 78.229 34.669 C 75.999 35.566, 73.832 40.961, 74.493 43.969 C 75.956 50.628, 84.216 52.775, 88.630 47.644 C 91.740 44.028, 91.707 39.616, 88.545 36.455 C 86.191 34.100, 81.612 33.308, 78.229 34.669 M 301.263 45 C 301.292 52.922, 301.336 53.102, 301.917 47.645 C 302.393 43.178, 303.096 41.341, 304.881 39.895 C 307.724 37.593, 308.410 37.553, 310.429 39.571 C 311.471 40.614, 312 42.970, 312 46.571 C 312 49.557, 312.450 52, 313 52 C 314.627 52, 314.178 41.699, 312.443 39.223 C 310.638 36.645, 307.364 36.357, 304.297 38.505 C 302.350 39.868, 302.106 39.845, 301.690 38.255 C 301.438 37.290, 301.246 40.325, 301.263 45 M 320.635 39.073 C 317.096 41.856, 317.014 47.104, 320.455 50.545 C 323.757 53.848, 327.470 53.684, 331.077 50.077 C 334.372 46.781, 334.639 45.137, 332.537 41.072 C 330.148 36.451, 325.055 35.596, 320.635 39.073 M 322.400 39.739 C 319.919 41.454, 318.952 44.801, 320.167 47.467 C 322.265 52.072, 328.455 52.230, 330.966 47.743 C 332.344 45.279, 332.344 44.720, 330.969 42.250 C 329.415 39.460, 324.772 38.100, 322.400 39.739 M 291.071 48.956 C 289.415 49.980, 290.379 53, 292.362 53 C 293.145 53, 294.032 52.358, 294.334 51.573 C 295.059 49.682, 292.812 47.880, 291.071 48.956 M 101.252 79.500 C 101.263 81.700, 101.468 82.482, 101.707 81.238 C 101.946 79.994, 101.937 78.194, 101.687 77.238 C 101.437 76.282, 101.241 77.300, 101.252 79.500 M 110.232 79 C 110.232 80.925, 110.438 81.713, 110.689 80.750 C 110.941 79.787, 110.941 78.213, 110.689 77.250 C 110.438 76.287, 110.232 77.075, 110.232 79 M 161.232 79 C 161.232 80.925, 161.438 81.713, 161.689 80.750 C 161.941 79.787, 161.941 78.213, 161.689 77.250 C 161.438 76.287, 161.232 77.075, 161.232 79 M 29.158 80 C 29.158 81.375, 29.385 81.938, 29.662 81.250 C 29.940 80.563, 29.940 79.438, 29.662 78.750 C 29.385 78.063, 29.158 78.625, 29.158 80 M 293.079 79.583 C 293.127 80.748, 293.364 80.985, 293.683 80.188 C 293.972 79.466, 293.936 78.603, 293.604 78.271 C 293.272 77.939, 293.036 78.529, 293.079 79.583" stroke="none" fill="#000000" fill-rule="evenodd"/>
</svg>