<svg xmlns="http://www.w3.org/2000/svg" width="278" height="74" viewBox="0 0 278 74" version="1.1">
	<path d="M 56.213 5.882 L 51.925 8.500 52.213 13.985 C 52.491 19.307, 52.628 19.541, 56.768 21.820 L 61.035 24.169 65.518 21.543 C 69.918 18.964, 70 18.820, 69.999 13.708 C 69.998 8.530, 69.971 8.485, 65.249 5.882 L 60.500 3.264 56.213 5.882 M 37.750 6.573 C 34.190 8.904, 34 9.301, 34 14.376 C 34 19.661, 34.049 19.748, 38.331 22.020 L 42.663 24.318 46.831 21.975 C 50.950 19.660, 51 19.564, 51 14.015 L 51 8.399 46.473 6.199 C 43.984 4.990, 41.846 4.026, 41.723 4.059 C 41.600 4.091, 39.813 5.223, 37.750 6.573 M 56.546 7.663 C 53.237 9.911, 52.864 10.570, 53.396 13.232 C 53.728 14.892, 54 16.785, 54 17.440 C 54 18.094, 55.615 19.400, 57.589 20.341 C 61.055 21.994, 61.296 21.980, 64.589 19.945 C 67.634 18.063, 68 17.365, 68 13.439 C 68 9.343, 67.735 8.906, 64.150 7.076 L 60.299 5.112 56.546 7.663 M 10.212 22.817 C 6.118 25.434, 6.014 25.635, 6.007 31.002 C 6 36.488, 6.012 36.510, 10.413 38.845 L 14.827 41.186 19.413 38.498 C 23.763 35.949, 24.008 35.569, 24.157 31.155 L 24.314 26.500 24.907 31.349 C 25.439 35.701, 25.912 36.441, 29.520 38.565 L 33.540 40.932 37.817 38.381 L 42.095 35.830 41.797 30.387 C 41.514 25.193, 41.312 24.833, 37.397 22.503 L 33.294 20.062 28.620 23.026 L 23.945 25.991 20.223 23.675 C 18.175 22.401, 16.030 21.084, 15.455 20.747 C 14.880 20.410, 12.520 21.342, 10.212 22.817 M 10.679 24.572 C 7.501 26.731, 7 27.601, 7 30.954 C 7 34.344, 7.464 35.124, 10.653 37.094 C 14.305 39.352, 14.306 39.352, 17.903 37.426 C 21.123 35.702, 21.531 35.024, 21.796 30.960 C 22.080 26.617, 21.925 26.326, 18.225 24.246 L 14.357 22.073 10.679 24.572 M 72.575 36.250 C 70.605 41.337, 68.995 45.837, 68.997 46.250 C 69.004 48.118, 72.797 46.741, 73.818 44.500 C 74.721 42.518, 75.691 42, 78.500 42 C 81.309 42, 82.279 42.518, 83.182 44.500 C 84.275 46.898, 88 48.063, 88 46.007 C 88 45.461, 86.378 40.961, 84.395 36.007 C 81.307 28.292, 80.458 27, 78.473 27 C 76.475 27, 75.662 28.274, 72.575 36.250 M 148 37 C 148 46.333, 148.133 47, 150 47 C 151.454 47, 152 46.333, 152 44.559 C 152 40.867, 153.654 40.605, 155.649 43.982 C 156.629 45.642, 158.234 47, 159.216 47 C 161.489 47, 161.455 46.258, 158.996 42.226 C 156.475 38.091, 156.496 37.166, 159.174 34.314 L 161.349 32 158.758 32 C 157.095 32, 155.432 32.986, 154.115 34.750 L 152.063 37.500 152.032 32.250 C 152.004 27.677, 151.742 27, 150 27 C 148.133 27, 148 27.667, 148 37 M 163.214 36.750 C 163.478 45.738, 163.656 46.500, 165.500 46.500 C 167.210 46.500, 167.544 45.732, 167.804 41.198 C 168.014 37.542, 168.588 35.711, 169.655 35.302 C 171.858 34.457, 172.967 36.770, 172.985 42.250 C 172.998 46.328, 173.283 47, 175 47 C 176.775 47, 177 46.333, 177 41.071 C 177 34.085, 175.259 31.588, 170.839 32.237 C 168.292 32.611, 168 32.363, 168 29.827 C 168 27.467, 167.581 27, 165.464 27 L 162.928 27 163.214 36.750 M 180 29 C 180 30.333, 180.667 31, 182 31 C 183.333 31, 184 30.333, 184 29 C 184 27.667, 183.333 27, 182 27 C 180.667 27, 180 27.667, 180 29 M 125.250 28.662 C 124.563 28.940, 124 29.804, 124 30.583 C 124 31.363, 123.550 32, 123 32 C 122.450 32, 122 32.675, 122 33.500 C 122 34.325, 122.450 35, 123 35 C 123.550 35, 124 37.160, 124 39.800 C 124 45.105, 125.237 47, 128.700 47 C 130.333 47, 131 46.420, 131 45 C 131 43.889, 130.333 43, 129.500 43 C 128.417 43, 128 41.889, 128 39 C 128 36.433, 128.427 35.090, 129.191 35.250 C 129.845 35.388, 130.553 34.712, 130.764 33.750 C 131.002 32.663, 130.551 32, 129.573 32 C 128.667 32, 128 31.153, 128 30 C 128 27.979, 127.521 27.746, 125.250 28.662 M 77.250 35.148 C 75.865 38.818, 76.060 39.293, 78.764 38.831 C 80.495 38.535, 80.582 38.152, 79.583 35.214 L 78.466 31.928 77.250 35.148 M 90 42 C 90 51.333, 90.133 52, 92 52 C 93.640 52, 94 51.333, 94 48.300 C 94 45.422, 94.267 44.867, 95.200 45.800 C 98.788 49.388, 104 45.554, 104 39.326 C 104 33.381, 98.705 29.695, 95.200 33.200 C 94.267 34.133, 94 34.133, 94 33.200 C 94 32.540, 93.100 32, 92 32 C 90.133 32, 90 32.667, 90 42 M 108.455 34.455 C 107.105 35.805, 106 38.075, 106 39.500 C 106 42.986, 110.164 47, 113.780 47 C 115.488 47, 117.532 46.063, 118.826 44.686 C 125.536 37.543, 115.382 27.527, 108.455 34.455 M 134 34 C 129.539 38.461, 132.722 47, 138.845 47 C 141.381 47, 145 44.455, 145 42.671 C 145 41.558, 141.483 41.917, 140.242 43.158 C 139.366 44.034, 138.670 43.974, 137.376 42.908 C 135.847 41.648, 136.184 41.447, 140.583 41 C 145.136 40.537, 145.477 40.315, 145.190 38 C 144.520 32.599, 137.802 30.198, 134 34 M 180 40.500 C 180 47.389, 179.716 49, 178.500 49 C 176.514 49, 176.570 51.621, 178.572 52.389 C 179.437 52.721, 181.012 52.529, 182.072 51.961 C 183.767 51.054, 184 49.788, 184 41.465 C 184 32.667, 183.859 32, 182 32 C 180.157 32, 180 32.667, 180 40.500 M 189 34 C 184.539 38.461, 187.722 47, 193.845 47 C 196.381 47, 200 44.455, 200 42.671 C 200 41.616, 196.512 41.888, 195.367 43.033 C 194.799 43.601, 193.584 43.778, 192.667 43.426 C 189.550 42.229, 190.985 41, 195.500 41 C 199.814 41, 200 40.878, 200 38.057 C 200 32.645, 192.954 30.046, 189 34 M 203 39.590 C 203 46.270, 203.192 47, 204.950 47 C 206.622 47, 206.943 46.182, 207.200 41.260 C 207.433 36.802, 207.880 35.447, 209.198 35.196 C 210.612 34.927, 210.947 35.847, 211.198 40.687 C 211.464 45.802, 211.764 46.538, 213.698 46.813 C 215.718 47.100, 215.921 46.655, 216.198 41.313 C 216.425 36.947, 216.873 35.500, 218 35.500 C 219.125 35.500, 219.575 36.939, 219.800 41.250 C 220.057 46.182, 220.377 47, 222.050 47 C 223.777 47, 224 46.280, 224 40.700 C 224 37.133, 223.479 33.879, 222.800 33.200 C 221.275 31.675, 217.748 31.652, 216.242 33.158 C 215.442 33.958, 214.686 33.999, 213.792 33.291 C 213.082 32.728, 210.363 32.248, 207.750 32.224 L 203 32.181 203 39.590 M 235.415 33.362 C 235.127 34.111, 235.029 37.369, 235.196 40.602 C 235.433 45.184, 235.874 46.552, 237.196 46.803 C 238.585 47.067, 238.946 46.184, 239.196 41.916 C 239.405 38.338, 240.033 36.372, 241.202 35.638 C 243.606 34.130, 244.271 35.224, 244.796 41.550 C 245.156 45.899, 245.594 47.032, 246.822 46.796 C 248.073 46.555, 248.332 45.292, 248.110 40.498 C 247.957 37.201, 247.365 33.939, 246.794 33.251 C 245.475 31.662, 241.766 31.634, 240.200 33.200 C 239.267 34.133, 239 34.133, 239 33.200 C 239 31.549, 236.059 31.682, 235.415 33.362 M 253.455 34.455 C 250.326 37.583, 250.326 41.417, 253.455 44.545 C 256.454 47.545, 259.870 47.677, 263.365 44.927 C 268.666 40.758, 265.248 32, 258.320 32 C 256.994 32, 254.805 33.105, 253.455 34.455 M 95.229 36.171 C 92.381 39.019, 95.032 44.969, 98.548 43.620 C 99.678 43.186, 100.034 41.960, 99.811 39.266 C 99.482 35.303, 97.462 33.938, 95.229 36.171 M 111.571 36.571 C 110.707 37.436, 110 38.754, 110 39.500 C 110 40.934, 112.638 44, 113.871 44 C 116.633 44, 118.014 38.414, 115.800 36.200 C 114.219 34.619, 113.457 34.685, 111.571 36.571 M 137.028 36.467 C 135.938 37.780, 136.143 38, 138.461 38 C 140.105 38, 141.011 37.534, 140.771 36.813 C 140.150 34.949, 138.420 34.789, 137.028 36.467 M 191.701 35.632 C 190.295 37.038, 191.059 38, 193.583 38 C 195.205 38, 196.012 37.535, 195.750 36.750 C 195.269 35.304, 192.730 34.603, 191.701 35.632 M 255.932 37.126 C 254.606 39.604, 256.107 44, 258.279 44 C 260.245 44, 262 41.878, 262 39.500 C 262 35.155, 257.855 33.534, 255.932 37.126 M 19.202 39.669 C 14.945 42.235, 14.907 42.308, 15.202 47.380 C 15.491 52.353, 15.633 52.570, 20.144 54.953 L 24.788 57.406 28.945 54.655 C 33.025 51.955, 33.096 51.810, 32.801 46.729 C 32.517 41.850, 32.270 41.423, 28.500 39.293 C 26.300 38.050, 24.275 37.043, 24 37.055 C 23.725 37.068, 21.566 38.244, 19.202 39.669 M 37.732 39.536 C 34.408 41.795, 34.002 42.533, 34.015 46.286 C 34.034 51.354, 34.412 51.959, 39.353 54.822 L 43.205 57.054 47.601 54.277 C 51.850 51.592, 51.996 51.332, 51.998 46.434 C 52 41.589, 51.830 41.273, 48.114 39.184 C 43.185 36.414, 42.282 36.444, 37.732 39.536 M 39.250 40.175 C 36.397 41.939, 36 42.710, 36 46.493 C 36 50.380, 36.353 51.011, 39.595 52.924 L 43.191 55.045 46.595 52.941 C 49.618 51.073, 50 50.352, 50 46.517 C 50 42.627, 49.646 41.989, 46.443 40.099 C 44.486 38.944, 42.799 38.037, 42.693 38.083 C 42.587 38.128, 41.038 39.070, 39.250 40.175 M 228 45 C 228 46.333, 228.667 47, 230 47 C 231.333 47, 232 46.333, 232 45 C 232 43.667, 231.333 43, 230 43 C 228.667 43, 228 43.667, 228 45 M 29.279 55.836 C 25.328 58.330, 25.057 58.794, 25.029 63.095 C 24.998 68.024, 26.062 69.525, 31.556 72.305 C 34.467 73.777, 34.812 73.724, 38.799 71.176 C 42.826 68.602, 42.986 68.303, 42.993 63.335 C 43 58.231, 42.947 58.141, 38.374 55.585 C 35.830 54.163, 33.692 53.039, 33.624 53.086 C 33.556 53.134, 31.601 54.371, 29.279 55.836" stroke="none" fill="#5275e0" fill-rule="evenodd"/>
</svg>