<svg xmlns="http://www.w3.org/2000/svg" width="511" height="99" viewBox="0 0 511 99" version="1.1">
	<path d="M 34.259 1.487 C 24.584 5.693, 27.500 20, 38.031 20 C 49.270 20, 51.882 4.947, 41.339 0.939 C 38.263 -0.231, 38.200 -0.226, 34.259 1.487 M 5.375 7.750 C 6.863 18.684, 14.320 28.395, 25 33.306 C 28.575 34.950, 32.960 37.665, 34.745 39.339 L 37.991 42.383 40.745 39.806 C 48.887 32.188, 59.163 32.115, 66.186 39.627 C 71.022 44.799, 72.337 51.925, 69.629 58.282 C 68.384 61.206, 39.658 91, 38.085 91 C 37.717 91, 30.615 84.137, 22.302 75.750 C 9.797 63.133, 6.992 59.764, 6.052 56.235 C 4.069 48.797, 6.988 40.802, 13.027 37.130 L 16.073 35.278 13.635 33.680 C 11.256 32.122, 11.087 32.200, 6.718 36.871 C -0.360 44.437, -1.417 54.810, 4.007 63.470 C 5.050 65.137, 13.133 73.700, 21.969 82.500 L 38.034 98.500 55.929 80.500 C 71.379 64.959, 73.987 61.885, 75.020 58 C 78.347 45.481, 71.229 33.293, 58.604 29.893 C 53.619 28.551, 45.415 30.099, 41.596 33.103 L 39.070 35.090 30.481 30.991 C 17.526 24.808, 10.504 16.546, 9.841 6.708 C 9.626 3.516, 9.253 3, 7.160 3 C 4.835 3, 4.757 3.208, 5.375 7.750 M 66.168 8.965 C 65.355 12.901, 63.762 16.469, 61.486 19.451 L 58.035 23.971 60.673 24.633 C 62.620 25.121, 63.693 24.798, 64.770 23.397 C 67.285 20.124, 70.755 11.678, 71.402 7.250 C 71.980 3.296, 71.862 3, 69.712 3 C 67.692 3, 67.244 3.754, 66.168 8.965 M 35.223 6.557 C 33.982 7.426, 33 9.167, 33 10.500 C 33 12.841, 36.246 16, 38.651 16 C 42.687 16, 44.638 7.947, 41.066 6.035 C 38.500 4.662, 37.844 4.720, 35.223 6.557 M 115.561 33.250 C 111.792 54.425, 108.818 70.640, 108.317 72.750 C 107.852 74.710, 108.178 75, 110.846 75 C 113.610 75, 113.969 74.634, 114.522 71.250 C 116.183 61.083, 115.548 61.872, 121.806 62.203 L 127.433 62.500 128.273 66.500 C 128.735 68.700, 129.322 71.513, 129.576 72.750 C 129.931 74.481, 130.731 75, 133.038 75 C 135.633 75, 135.969 74.697, 135.529 72.750 C 135.249 71.513, 133.205 61.050, 130.988 49.500 C 128.771 37.950, 126.733 27.488, 126.459 26.250 C 126.036 24.335, 125.310 24, 121.585 24 L 117.208 24 115.561 33.250 M 144 49.406 L 144 75 146.965 75 L 149.930 75 150.215 64.750 L 150.500 54.500 158.171 54 C 162.389 53.725, 166.214 53.126, 166.671 52.669 C 167.127 52.213, 167.649 46.795, 167.831 40.630 C 168.126 30.637, 167.946 29.154, 166.171 26.961 C 164.334 24.691, 163.396 24.473, 154.090 24.156 L 144 23.813 144 49.406 M 181 24.643 C 177.299 26.091, 177 27.952, 177 49.500 C 177 66.160, 177.300 71.028, 178.419 72.559 C 179.632 74.218, 181.079 74.500, 188.369 74.500 C 194.036 74.500, 197.337 74.063, 198.200 73.200 C 200.063 71.337, 200.079 27.679, 198.218 25.818 C 196.882 24.482, 183.709 23.583, 181 24.643 M 208 26.500 C 208 28.750, 208.400 29, 212 29 L 216 29 216 52 L 216 75 218.981 75 L 221.962 75 222.231 52.250 L 222.500 29.500 226.750 29.193 C 230.506 28.921, 231 28.601, 231 26.443 L 231 24 219.500 24 L 208 24 208 26.500 M 239 49.500 L 239 75 249.500 75 L 260 75 260 72.500 C 260 70.056, 259.833 70, 252.500 70 L 245 70 245 60.500 L 245 51 250.750 51 C 256.217 51, 256.500 50.877, 256.500 48.500 C 256.500 46.123, 256.217 46, 250.750 46 L 245 46 245 37.500 L 245 29 252 29 C 258.800 29, 259 28.929, 259 26.500 L 259 24 249 24 L 239 24 239 49.500 M 268 49.500 L 268 75 271.250 75 L 274.500 75 274.500 49.500 L 274.500 24 271.250 24 L 268 24 268 49.500 M 282.164 36.297 C 279.324 43.060, 277 49.046, 277 49.599 C 277 50.151, 279.219 55.980, 281.931 62.552 C 286.823 74.404, 286.891 74.502, 290.372 74.807 L 293.882 75.114 288.392 62.384 L 282.902 49.655 285.091 44.577 C 286.295 41.785, 288.775 36.013, 290.602 31.750 L 293.924 24 290.626 24 C 287.354 24, 287.287 24.097, 282.164 36.297 M 315 49.500 L 315 75 318.467 75 L 321.934 75 322.217 63.750 L 322.500 52.500 328.250 52.200 C 333.604 51.921, 334 51.731, 334 49.450 C 334 47.122, 333.701 47, 328 47 L 322 47 322 38.500 L 322 30 329.500 30 L 337 30 337 27 L 337 24 326 24 L 315 24 315 49.500 M 348 24.644 C 344.300 26.089, 344 27.952, 344 49.500 C 344 66.160, 344.300 71.028, 345.419 72.559 C 346.646 74.236, 348.086 74.500, 356 74.500 C 363.914 74.500, 365.354 74.236, 366.581 72.559 C 368.643 69.738, 368.651 29.272, 366.589 26.453 C 365.433 24.872, 363.761 24.481, 357.339 24.291 C 353.028 24.163, 348.825 24.322, 348 24.644 M 379 49.406 L 379 75 381.965 75 L 384.930 75 385.215 64.750 C 385.481 55.166, 385.638 54.480, 387.626 54.197 C 389.484 53.932, 390.238 55.219, 393.626 64.441 L 397.500 74.988 401.141 74.994 L 404.782 75 400.832 64.940 L 396.883 54.880 399.442 52.867 C 401.915 50.922, 402 50.481, 402 39.619 C 402 24.555, 402.036 24.598, 389.082 24.156 L 379 23.813 379 49.406 M 427 49.409 L 427 75 437 75 C 451.662 75, 451 76.197, 451 49.691 C 451 32.879, 450.701 27.973, 449.582 26.441 C 448.365 24.774, 446.669 24.452, 437.582 24.159 L 427 23.818 427 49.409 M 460 49.500 L 460 75 470.500 75 L 481 75 481.002 72.250 L 481.005 69.500 474.002 69.832 L 467 70.164 467 60.490 L 467 50.815 472.501 51.157 C 477.919 51.495, 478.003 51.458, 478.001 48.750 C 478 46.083, 477.833 46, 472.500 46 L 467 46 467 38 L 467 30 474 30 L 481 30 481 27 L 481 24 470.500 24 L 460 24 460 49.500 M 489.455 26.455 C 487.004 28.905, 487 28.943, 487 49.955 C 487 76.006, 486.687 75.385, 499.549 74.849 C 504.626 74.637, 508.410 73.991, 509.200 73.203 C 510.071 72.334, 510.611 68.120, 510.836 60.453 L 511.172 49 505.586 49 C 500.367 49, 500 49.157, 500 51.383 C 500 52.926, 500.706 53.951, 502 54.290 C 503.762 54.751, 504 55.654, 504 61.887 C 504 68.520, 503.850 69, 501.602 69.564 C 500.283 69.895, 498.145 70.016, 496.852 69.833 L 494.500 69.500 494.229 49.774 L 493.958 30.049 496.479 29.416 C 497.866 29.068, 500.125 29.066, 501.500 29.411 C 503.643 29.948, 504 30.607, 504 34.019 C 504 37.902, 504.086 38, 507.500 38 C 510.987 38, 511 37.983, 511 33.455 C 511 29.962, 510.432 28.341, 508.545 26.455 C 506.401 24.310, 505.195 24, 499 24 C 492.805 24, 491.599 24.310, 489.455 26.455 M 150.427 30.329 C 150.147 31.060, 150.048 35.673, 150.209 40.579 L 150.500 49.500 153.888 49.824 C 155.752 50.002, 158.339 49.881, 159.638 49.555 C 161.896 48.988, 162 48.576, 162 40.181 C 162 34.685, 161.551 30.951, 160.800 30.200 C 159.142 28.542, 151.074 28.642, 150.427 30.329 M 183.446 30.281 C 183.175 30.985, 183.077 40.098, 183.227 50.531 L 183.500 69.500 187.901 69.815 C 190.745 70.018, 192.597 69.665, 193.136 68.815 C 194.087 67.315, 194.318 32.992, 193.393 30.582 C 192.630 28.593, 184.191 28.337, 183.446 30.281 M 433.467 30.226 C 433.185 30.960, 433.077 40.098, 433.227 50.531 L 433.500 69.500 438.500 69.500 L 443.500 69.500 443.500 49.500 L 443.500 29.500 438.740 29.195 C 435.463 28.985, 433.820 29.306, 433.467 30.226 M 351 49.500 L 351 69 356 69 L 361 69 361 49.500 L 361 30 356 30 L 351 30 351 49.500 M 385.212 39.196 L 385.500 48.500 389.586 48.800 C 395.311 49.219, 396.148 47.808, 395.794 38.345 L 395.500 30.500 390.212 30.196 L 384.924 29.893 385.212 39.196 M 120.993 31.550 C 120.990 32.072, 120.093 37.675, 119 44 C 117.907 50.325, 117.010 56.063, 117.007 56.750 C 117.002 57.588, 118.685 58, 122.107 58 C 125.772 58, 127.084 57.647, 126.752 56.750 C 126.498 56.063, 125.468 50.325, 124.462 44 C 123.457 37.675, 122.266 32.072, 121.817 31.550 C 121.301 30.950, 120.998 30.950, 120.993 31.550 M 36 54.111 L 36 59 31.500 59 C 27.667 59, 27 59.296, 27 61 C 27 62.704, 27.667 63, 31.500 63 L 36 63 36 67.500 C 36 71.333, 36.296 72, 38 72 C 39.704 72, 40 71.333, 40 67.500 L 40 63 44.383 63 C 47.888 63, 48.869 62.609, 49.277 61.050 C 49.721 59.352, 49.188 59.062, 45.143 58.800 L 40.500 58.500 40 54 C 39.628 50.648, 39.054 49.465, 37.750 49.361 C 36.303 49.246, 36 50.069, 36 54.111" stroke="none" fill="#000000" fill-rule="evenodd"/>
</svg>